P2
# Created by GIMP version 2.10.22 PNM plug-in
100 100
255
0
0
0
0
0
0
0
0
0
0
0
0
0
0
0
0
0
0
0
0
0
0
0
0
0
0
0
0
0
0
0
0
0
0
0
0
0
0
0
0
0
0
0
0
0
0
1
3
6
10
13
16
18
21
24
27
28
31
34
45
57
70
86
98
109
121
133
144
154
164
172
179
187
192
198
202
207
209
211
212
211
211
211
207
204
199
195
189
185
179
170
161
151
140
129
119
106
92
80
68
0
0
0
0
0
0
0
0
0
0
0
0
0
0
0
0
0
0
0
0
0
0
0
0
0
0
0
0
0
0
0
0
0
0
0
0
0
0
0
0
0
0
0
0
0
2
5
8
12
16
20
23
26
29
31
34
37
40
47
58
70
84
97
108
123
134
144
158
168
176
182
193
199
205
210
212
214
217
220
220
220
220
218
216
215
211
206
201
195
189
182
172
164
154
142
129
117
105
90
78
0
0
0
0
0
0
0
0
0
0
0
0
0
0
0
0
0
0
0
0
0
0
0
0
0
0
0
0
0
0
0
0
0
0
0
0
0
0
0
0
0
0
0
1
3
6
10
14
18
23
27
30
33
37
39
42
45
48
58
71
82
96
108
122
132
145
155
167
179
185
193
202
209
213
217
221
223
226
228
229
229
229
226
225
222
218
214
210
204
198
192
184
173
161
153
142
127
116
101
89
0
0
0
0
0
0
0
0
0
0
0
0
0
0
0
0
0
0
0
0
0
0
0
0
0
0
0
0
0
0
0
0
0
0
0
0
0
0
0
0
0
0
1
3
6
11
16
21
26
29
33
37
40
44
47
50
53
60
69
81
93
107
118
131
144
153
165
176
185
196
201
211
216
221
225
230
233
235
236
236
235
236
236
233
230
226
222
220
213
207
200
193
184
173
161
152
137
125
110
96
0
0
0
0
0
0
0
0
0
0
0
0
0
0
0
0
0
0
0
0
0
0
0
0
0
0
0
0
0
0
0
0
0
0
0
0
0
0
0
0
0
1
3
6
11
17
22
27
31
36
40
44
47
52
56
58
61
70
80
91
103
115
128
139
151
164
175
184
195
204
211
217
223
227
233
236
239
241
242
241
241
240
241
238
237
233
229
225
221
216
209
200
192
183
171
158
147
133
119
105
0
0
0
0
0
0
0
0
0
0
0
0
0
0
0
0
0
0
0
0
0
0
0
0
0
0
0
1
1
1
1
1
1
1
1
1
1
1
0
0
0
2
6
11
17
22
28
33
38
43
47
51
55
59
62
66
72
79
88
99
112
126
136
148
161
170
183
191
202
210
218
221
228
234
238
241
243
245
245
246
246
245
244
244
242
239
234
230
226
222
215
207
199
187
179
166
153
141
127
111
0
0
0
0
0
0
0
0
0
0
0
0
0
0
0
0
0
0
0
0
0
0
0
0
1
1
2
6
7
7
8
8
8
8
6
3
3
3
2
1
3
6
11
17
22
28
34
39
44
48
53
57
62
66
70
74
80
88
98
108
120
134
145
156
167
179
189
200
208
216
224
228
234
237
241
244
247
247
248
249
249
248
248
247
246
242
239
236
232
226
221
214
206
196
183
174
161
147
134
118
0
0
0
0
0
0
0
0
0
0
0
0
0
0
0
0
0
0
0
0
0
0
1
6
7
12
13
15
17
18
19
19
19
18
17
15
11
10
9
5
7
11
16
22
28
34
39
44
49
54
59
64
69
74
78
82
89
97
107
118
129
140
151
164
175
186
195
205
214
220
228
233
238
242
244
248
249
249
250
250
250
250
250
249
249
246
243
241
236
232
226
219
211
203
193
181
167
155
140
125
0
0
0
0
0
0
0
0
0
0
0
0
0
0
0
0
0
0
0
0
1
6
11
16
20
22
26
27
29
30
31
31
31
29
29
26
24
22
18
13
16
17
21
27
33
38
44
49
55
61
66
71
75
80
85
89
96
106
114
124
137
146
158
170
182
193
201
209
216
225
233
236
241
244
248
250
250
251
252
252
252
251
251
250
250
249
246
243
240
235
229
223
216
207
197
186
172
159
145
131
0
0
0
0
0
0
0
0
0
0
0
0
0
0
0
0
0
0
1
6
11
19
22
25
31
34
35
38
40
41
42
42
42
41
39
38
35
31
29
27
26
26
29
32
38
44
50
55
61
67
72
77
83
87
93
96
103
112
122
132
144
153
164
176
187
196
206
215
221
227
236
239
244
247
250
251
251
252
253
253
253
252
252
251
251
251
248
245
242
238
232
227
220
211
202
189
177
164
150
136
0
0
0
0
0
0
0
0
0
0
0
0
0
0
0
0
0
5
10
18
24
28
34
37
40
46
47
49
51
52
53
53
53
52
50
49
45
41
40
37
36
36
38
40
43
49
54
60
67
71
77
84
89
94
99
105
112
121
131
140
151
161
171
182
190
198
208
216
224
230
238
241
245
248
250
252
252
253
253
253
253
253
253
252
252
252
249
247
243
239
235
229
221
213
204
194
182
169
154
141
0
0
0
0
0
0
0
0
0
0
0
0
0
0
0
0
9
14
21
27
33
39
44
48
51
55
58
60
62
63
64
64
64
63
61
57
55
53
51
48
46
45
46
47
50
54
59
65
71
77
83
89
95
101
107
113
120
128
137
146
156
166
175
185
195
203
212
221
227
233
240
243
246
248
251
252
252
253
253
253
253
253
253
252
252
252
250
248
244
241
237
231
224
217
207
196
184
171
157
142
0
0
0
0
0
0
0
0
0
0
0
0
0
0
4
9
17
23
29
38
44
50
54
59
61
65
68
71
73
74
76
76
76
74
72
68
66
64
60
58
57
54
53
54
56
61
65
69
76
82
89
95
101
107
113
119
127
136
144
153
162
171
179
189
198
205
214
222
229
233
240
243
246
249
251
252
253
253
253
254
253
253
253
252
253
253
250
248
246
242
237
232
226
218
208
198
186
172
158
144
0
0
0
0
0
0
0
0
0
0
0
0
0
4
9
17
25
31
41
46
52
57
64
68
72
76
79
82
84
85
86
86
86
85
82
80
77
72
71
68
64
63
63
62
64
66
70
74
80
87
93
99
106
113
120
127
134
143
151
159
167
176
184
192
200
208
216
223
229
234
241
244
246
249
251
253
253
253
253
253
253
253
253
252
252
253
250
248
246
242
238
233
227
219
209
199
187
173
160
145
0
0
0
0
0
0
0
0
0
0
0
0
4
9
17
25
33
42
49
55
63
68
72
77
83
86
89
92
95
96
96
96
96
95
92
90
88
83
80
78
74
71
71
71
70
72
75
79
84
91
98
106
112
119
126
134
141
150
158
166
173
181
188
195
201
208
215
223
229
234
240
244
247
250
250
252
253
253
253
253
253
253
253
253
252
252
250
248
245
242
237
232
226
218
209
199
188
174
161
147
0
0
0
0
0
0
0
0
0
0
0
0
8
16
25
33
42
51
56
65
71
77
82
88
92
96
99
103
103
106
107
107
105
105
103
101
97
93
92
86
84
81
79
78
78
79
81
84
90
96
102
110
118
126
133
139
147
155
163
170
178
183
190
198
204
211
217
224
229
234
239
244
246
249
251
251
253
253
253
253
253
253
253
252
252
251
250
247
245
242
238
233
226
218
209
199
186
174
159
145
0
0
0
0
0
0
0
0
0
0
0
8
16
25
33
41
51
60
65
73
79
84
92
96
101
107
110
113
115
117
117
118
116
116
113
111
107
103
101
95
91
88
85
85
84
84
87
90
94
100
107
114
122
130
137
145
153
161
168
174
181
187
192
198
204
211
217
222
228
233
238
242
245
247
250
251
252
253
253
253
253
253
252
252
251
251
249
247
246
241
236
232
225
218
208
198
185
171
158
142
0
0
0
0
0
0
0
0
0
0
4
13
22
30
41
50
59
64
73
80
87
95
101
107
110
114
120
123
125
127
128
128
127
126
123
120
117
112
109
105
99
97
93
91
90
90
92
94
98
103
110
117
126
134
142
150
158
166
173
178
185
189
195
199
204
211
216
222
228
232
236
241
244
246
248
250
251
251
253
253
252
252
251
252
251
249
248
246
244
240
237
231
223
215
206
195
183
170
156
142
0
0
0
0
0
0
0
0
0
0
8
19
28
38
48
56
63
72
80
89
97
104
108
114
120
125
128
133
135
136
138
138
136
136
133
130
125
121
118
114
110
105
102
97
95
94
95
97
100
106
112
120
128
138
146
153
161
169
176
182
187
192
196
199
204
209
215
220
225
230
235
238
242
244
245
247
250
250
251
251
251
251
251
249
250
248
246
244
242
238
234
227
220
213
202
192
180
167
152
138
0
0
0
0
0
0
0
0
0
4
15
25
36
45
52
63
72
80
88
96
104
110
118
123
129
135
138
141
144
147
148
149
147
145
142
139
136
131
127
120
116
112
107
104
101
99
100
100
105
109
115
122
131
140
148
156
163
171
178
184
190
193
195
199
203
207
212
216
222
227
231
235
238
243
243
245
247
248
249
250
250
249
249
249
248
246
244
240
239
235
231
224
217
209
199
188
175
163
149
134
0
0
0
0
0
0
0
0
0
8
20
29
40
49
60
69
77
86
96
103
110
118
125
132
137
143
148
151
154
156
158
159
157
155
153
148
143
139
135
128
124
118
114
108
105
104
103
103
107
111
116
123
131
140
148
156
164
171
179
186
191
192
193
196
200
205
209
212
218
223
228
232
234
239
241
242
244
246
247
247
248
246
247
245
245
242
241
238
236
231
227
219
213
204
194
182
171
158
144
130
0
0
0
0
0
0
0
0
4
15
24
35
46
55
65
75
82
92
101
110
117
125
133
140
146
152
158
161
165
168
168
169
167
166
163
159
154
146
142
137
130
125
120
115
111
107
107
106
109
112
117
124
131
140
148
156
163
170
177
183
187
189
191
194
197
199
203
208
212
219
223
227
230
234
238
240
242
243
244
243
243
244
244
243
241
238
236
234
231
225
221
215
207
197
188
178
165
153
139
125
0
0
0
0
0
0
0
0
8
18
28
40
48
60
69
79
89
99
106
116
125
133
140
147
154
160
166
171
174
177
179
179
177
175
171
167
162
155
150
144
138
131
124
119
115
111
108
108
109
112
117
122
129
138
146
153
161
167
173
178
182
184
186
189
192
194
198
203
208
211
218
222
226
228
231
235
235
237
238
239
240
239
238
237
236
234
230
229
224
220
215
208
199
189
180
170
157
145
132
119
0
0
0
0
0
0
0
4
12
21
32
44
54
63
73
85
93
102
112
122
129
138
146
154
161
169
175
180
184
186
188
188
187
185
181
176
170
163
155
149
142
136
129
123
118
114
111
109
110
112
115
120
128
135
143
150
156
162
167
171
175
178
181
182
185
189
192
196
200
207
209
215
219
223
226
228
229
230
232
233
234
234
233
231
230
228
225
222
218
214
207
200
191
183
173
162
149
137
124
112
0
0
0
0
0
0
0
4
15
26
35
46
57
68
79
87
97
108
116
126
134
145
152
160
168
176
182
188
192
196
196
197
195
193
188
184
177
170
163
156
147
142
133
127
121
116
114
111
109
111
114
119
124
131
137
144
151
156
161
165
168
170
172
175
177
180
184
188
193
199
202
207
211
214
217
220
225
224
226
228
227
226
227
223
222
219
218
213
209
204
199
190
182
173
163
152
140
127
116
104
0
0
0
0
0
0
0
8
18
28
40
48
59
70
81
92
102
111
121
131
140
149
157
167
175
183
188
195
199
203
204
204
203
200
196
190
185
177
168
162
152
145
137
129
124
119
114
111
109
110
112
116
120
127
133
139
145
150
154
157
160
162
164
167
169
173
175
179
184
189
194
197
202
204
208
212
214
216
217
219
218
218
218
218
214
211
209
205
199
193
188
180
171
163
154
143
130
119
108
97
0
0
0
0
0
0
0
8
20
29
40
51
62
73
84
95
105
115
123
133
145
154
162
172
180
188
194
201
206
209
210
211
210
207
202
196
189
182
174
165
157
147
140
133
126
119
114
110
108
107
109
112
116
121
126
132
137
142
146
149
151
154
155
157
159
163
167
169
175
178
181
188
191
196
200
201
205
206
209
208
209
207
207
205
206
201
198
194
189
182
176
169
161
152
141
132
121
111
100
90
0
0
0
0
0
0
0
8
20
32
43
54
65
75
86
96
108
118
128
136
147
157
167
177
185
194
200
206
211
214
216
216
215
212
207
202
194
186
178
168
160
149
143
134
127
121
114
111
107
107
106
107
110
115
120
125
130
134
137
140
141
143
144
147
149
152
155
158
164
167
172
175
181
183
188
190
194
195
196
198
198
197
198
195
193
188
187
183
177
171
164
157
150
141
130
119
109
99
91
81
0
0
0
0
0
0
4
12
23
34
44
56
67
78
89
97
108
118
128
139
148
159
169
179
189
196
204
210
215
219
220
220
219
215
211
204
198
189
180
171
161
152
143
134
126
120
115
110
106
103
104
105
106
109
113
117
122
126
129
131
132
134
135
136
137
141
144
148
151
156
161
164
168
171
175
178
180
182
185
184
185
186
184
183
181
177
173
168
164
159
152
144
136
127
118
109
100
91
83
76
0
0
0
0
0
0
4
12
23
34
44
56
67
78
89
98
109
120
130
141
151
161
172
181
190
199
206
212
216
221
223
224
221
217
213
208
200
191
182
172
162
154
143
136
127
119
114
108
104
100
99
99
100
102
107
111
114
117
120
122
123
124
125
126
127
129
131
135
138
143
146
150
154
159
161
165
167
169
171
171
170
173
170
169
166
164
159
155
150
145
139
130
122
115
105
97
89
81
75
69
0
0
0
0
0
0
4
12
23
34
44
56
67
78
89
98
109
120
130
141
151
161
171
181
190
199
206
213
218
223
225
224
222
218
213
207
199
191
181
172
162
154
143
136
127
118
112
106
101
96
94
94
94
95
99
102
106
109
111
113
115
114
114
116
116
118
120
122
125
129
134
137
140
144
146
150
152
156
157
156
156
157
156
153
151
150
146
140
136
130
125
117
110
102
93
87
79
74
68
62
0
0
0
0
0
0
4
12
23
34
44
56
67
78
89
98
109
120
129
140
151
160
171
180
190
198
205
211
216
221
223
222
220
216
212
206
199
190
181
171
162
152
143
134
125
117
109
103
98
93
91
89
90
90
92
95
97
100
103
105
105
106
105
106
105
107
108
110
112
115
119
122
126
129
132
135
137
140
141
141
141
141
140
138
136
134
130
126
121
115
109
103
96
89
84
76
71
66
61
54
0
0
0
0
0
0
4
12
23
34
44
56
67
78
89
97
107
118
127
138
148
159
169
178
187
195
202
209
214
217
219
219
217
214
208
202
196
188
178
168
159
149
140
131
123
114
107
100
94
90
86
83
82
82
84
87
90
93
94
96
97
97
97
97
96
95
96
97
99
102
104
107
108
112
115
117
120
124
125
125
126
125
124
122
120
116
114
110
105
101
95
89
84
77
72
68
63
57
53
48
0
0
0
0
0
0
0
8
20
32
43
53
64
75
85
95
106
117
127
136
145
156
166
176
183
192
199
204
209
212
214
213
212
209
205
200
192
184
176
165
156
146
138
130
121
112
104
97
90
83
80
78
76
76
77
80
82
84
86
87
88
88
88
88
88
87
86
85
86
87
89
91
93
98
101
101
103
106
106
106
108
108
107
105
104
101
97
93
90
85
80
76
71
67
63
60
55
50
46
42
0
0
0
0
0
0
0
8
20
29
40
50
61
72
82
93
105
114
123
133
142
153
160
171
178
186
193
199
203
207
208
208
206
204
198
193
186
180
170
162
153
143
132
126
116
108
100
92
86
80
74
70
70
69
70
73
74
76
77
79
80
80
80
80
79
78
77
76
75
74
74
76
78
80
83
86
87
90
91
91
91
93
90
91
89
85
83
79
76
71
68
65
62
58
55
51
47
44
39
34
0
0
0
0
0
0
0
8
17
28
40
48
58
70
81
91
102
109
120
129
138
147
156
166
173
180
186
193
196
200
201
201
198
196
192
187
180
174
165
156
147
139
129
120
113
105
95
87
80
73
69
66
63
62
62
64
66
68
69
71
72
72
71
71
70
69
67
67
66
65
64
62
65
65
67
66
68
70
71
73
75
76
74
74
73
71
69
65
64
61
60
57
54
51
47
43
40
36
32
28
0
0
0
0
0
0
0
4
15
25
34
44
56
67
78
85
95
106
115
125
133
142
150
159
166
173
179
185
189
192
193
193
192
188
184
180
173
167
159
151
142
133
125
116
107
98
90
83
74
67
62
59
56
55
55
56
59
61
62
63
63
64
63
62
61
60
59
57
56
56
54
53
52
53
50
51
53
55
57
58
60
59
59
59
59
60
58
57
56
54
52
50
47
43
39
36
32
29
25
20
0
0
0
0
0
0
0
4
12
21
32
42
53
62
72
82
91
102
109
120
127
136
143
151
159
166
172
177
180
183
184
184
182
180
176
172
165
158
151
143
136
128
119
111
101
94
85
76
69
63
56
52
49
47
48
49
51
53
54
55
55
55
55
54
52
51
50
48
47
46
45
44
43
43
44
44
45
46
48
50
52
51
53
53
53
52
52
51
50
47
46
43
40
36
33
29
26
21
17
13
0
0
0
0
0
0
0
0
8
17
28
40
48
58
67
78
89
96
104
114
122
130
138
144
151
157
162
167
170
173
174
174
172
170
166
162
157
150
145
138
130
123
113
105
97
87
78
71
63
57
50
44
40
40
40
42
43
45
46
46
47
47
47
45
44
43
41
39
39
39
37
36
36
38
38
39
39
41
42
45
47
47
49
48
49
49
47
47
44
42
41
38
35
32
28
24
20
15
12
8
0
0
0
0
0
0
0
0
4
15
23
33
44
54
64
72
81
91
99
106
115
123
130
137
143
149
154
157
160
163
164
164
162
160
157
154
149
143
137
130
123
114
108
100
90
82
72
65
57
49
41
37
34
31
32
34
35
38
39
39
39
39
39
37
35
34
34
33
32
31
30
30
32
33
33
35
38
40
41
42
45
45
47
47
47
47
45
44
43
39
38
36
32
29
25
21
17
13
7
4
0
0
0
0
0
0
0
0
0
8
20
29
40
48
58
67
75
83
93
102
107
115
123
128
134
140
144
147
149
152
153
153
152
150
148
143
139
134
128
122
114
109
102
92
83
76
68
58
50
43
34
28
25
23
25
27
28
30
31
31
31
31
30
29
28
28
26
26
26
26
27
27
29
33
33
35
38
41
42
43
46
46
46
46
47
48
46
45
42
40
38
34
33
28
25
22
17
12
7
4
0
0
0
0
0
0
0
0
0
4
15
23
33
42
51
61
70
78
85
93
102
107
115
121
125
131
134
137
140
143
144
144
142
139
137
135
131
126
121
114
108
101
94
86
79
69
60
51
43
35
27
20
14
15
18
20
20
22
24
24
24
24
23
20
20
21
20
21
23
25
27
29
31
34
36
39
41
44
47
48
49
50
50
50
51
50
49
47
44
42
40
37
34
31
28
23
19
15
11
7
0
0
0
0
0
0
0
0
0
0
8
17
25
36
45
54
62
70
78
85
93
99
105
110
116
121
124
128
130
132
132
133
132
131
127
124
121
116
110
106
100
93
85
79
69
61
54
46
35
25
19
11
7
8
10
12
13
14
16
16
16
16
15
14
15
16
18
19
22
25
27
31
34
37
41
44
46
49
51
53
54
54
55
55
54
54
53
51
49
46
44
41
37
34
31
27
24
19
15
11
0
0
0
0
0
0
0
0
0
0
4
12
21
29
40
48
56
62
70
78
83
91
96
103
108
111
116
119
120
122
122
123
121
121
118
115
112
107
103
97
91
84
77
69
64
56
47
38
28
20
12
2
2
2
4
5
6
6
7
7
7
7
8
9
10
12
16
20
23
27
31
35
39
43
46
49
52
54
57
59
60
60
61
61
60
60
59
57
54
52
49
46
43
39
35
31
27
23
19
14
0
0
0
0
0
0
0
0
0
0
0
8
15
23
32
40
48
56
62
70
76
82
89
93
97
103
106
109
110
112
112
113
111
111
109
106
102
97
93
88
82
76
69
64
55
47
39
31
22
12
6
0
0
0
0
1
2
2
2
2
2
2
4
6
9
13
18
22
27
31
35
40
44
48
51
54
57
60
62
64
66
67
67
67
67
66
64
62
60
57
54
51
48
44
40
35
31
27
22
18
0
0
0
0
0
0
0
0
0
0
0
0
8
15
23
32
40
48
54
62
68
72
79
84
87
92
95
98
99
101
102
102
100
100
99
95
91
88
83
78
73
67
60
55
46
39
31
22
12
6
1
0
0
0
0
0
0
0
0
0
0
1
3
6
11
16
21
26
31
35
39
44
48
52
56
59
62
65
68
70
71
73
74
74
73
71
70
68
65
62
59
56
52
48
44
39
35
31
26
21
0
0
0
0
0
0
0
0
0
0
0
0
4
8
15
23
32
40
46
52
59
65
69
73
79
82
85
87
90
91
91
91
91
89
87
85
82
78
73
69
64
57
52
46
39
30
22
15
6
1
0
0
0
0
0
0
0
0
0
0
0
2
5
9
14
19
24
29
33
38
43
48
52
56
60
64
67
71
74
76
78
79
80
80
79
78
76
74
71
67
64
60
56
52
48
43
38
33
29
24
0
0
0
0
0
0
0
0
0
0
0
0
0
4
8
15
23
30
36
43
49
54
60
63
68
71
74
77
80
80
81
81
81
79
77
74
71
67
63
59
54
49
43
35
29
21
15
6
1
0
0
0
0
0
0
0
0
0
0
0
1
3
6
11
17
22
27
32
37
42
47
51
56
60
65
69
73
77
80
82
84
86
87
87
86
84
82
80
77
73
69
65
60
56
51
47
42
37
32
27
0
0
0
0
0
0
0
0
0
0
0
0
0
0
4
8
15
21
26
34
41
46
49
54
58
61
63
67
69
69
70
70
70
68
66
63
61
59
53
50
45
40
33
26
20
11
6
0
0
0
0
0
0
0
0
0
0
0
0
0
1
4
8
14
19
24
29
34
40
45
49
55
60
64
69
73
77
82
85
89
91
93
94
94
93
91
89
85
82
77
73
69
64
60
55
49
45
40
34
29
0
0
0
0
0
0
0
0
0
0
0
0
0
0
0
0
8
12
18
23
30
35
41
44
46
49
53
56
59
60
60
60
60
58
55
52
50
48
44
39
33
29
23
18
10
5
0
0
0
0
0
0
0
0
0
0
0
0
0
1
2
5
10
15
21
26
31
37
42
47
52
58
63
68
73
77
82
87
92
95
98
100
101
101
100
98
95
92
87
82
77
73
68
63
58
52
47
42
37
31
0
0
0
0
0
0
0
0
0
0
0
0
0
0
0
0
0
4
8
15
21
25
31
34
37
42
45
47
49
49
50
50
50
48
46
44
40
37
33
29
24
20
14
9
0
0
0
0
0
0
0
0
0
0
0
0
0
0
0
1
3
7
12
17
22
28
34
39
45
50
56
61
66
72
77
82
88
93
97
101
105
107
108
108
107
105
101
97
93
87
82
77
72
66
61
55
50
44
39
34
0
0
0
0
0
0
0
0
0
0
0
0
0
0
0
0
0
0
0
5
10
18
21
25
30
34
35
38
41
41
41
41
41
40
36
35
33
28
24
20
16
10
4
0
0
0
0
0
0
0
0
0
0
0
0
0
0
0
0
1
4
8
13
19
24
30
36
42
48
53
58
64
70
75
81
87
93
98
103
107
111
113
115
115
113
111
107
102
98
92
86
80
75
69
63
57
52
47
41
35
0
0
0
0
0
0
0
0
0
0
0
0
0
0
0
0
0
1
2
4
6
11
16
20
23
28
30
31
33
34
34
34
34
32
31
28
25
21
17
12
10
5
3
2
2
2
2
2
2
2
2
2
1
1
1
0
0
0
0
2
4
8
15
20
27
32
39
44
50
56
61
67
73
79
85
91
97
102
108
113
116
119
121
121
119
116
112
107
101
96
90
83
78
71
65
60
54
48
43
37
0
0
0
0
0
0
0
0
0
0
0
0
0
0
0
0
2
3
5
7
10
12
15
19
21
24
25
28
30
30
30
30
30
28
27
24
21
19
18
13
13
11
9
8
7
5
5
5
5
5
5
4
4
3
2
1
1
0
0
2
6
10
17
23
29
35
41
47
53
58
65
70
75
82
88
95
101
107
113
117
122
125
126
126
124
121
117
112
106
99
93
86
79
73
67
62
56
50
44
38
0
0
0
0
0
0
0
0
0
0
0
0
0
0
1
2
4
6
8
12
15
18
20
22
24
25
27
30
31
31
31
31
31
30
29
25
25
24
22
21
20
18
17
16
15
14
13
12
12
12
9
8
8
7
5
4
3
2
1
3
7
14
20
26
32
38
44
49
55
60
66
72
78
84
91
97
104
110
116
121
126
129
131
131
129
125
120
114
108
102
95
88
81
74
68
62
56
50
45
39
0
0
0
0
0
0
0
0
0
0
0
0
0
1
2
4
7
10
14
17
20
23
25
27
30
31
32
34
35
35
35
35
35
34
33
33
32
31
30
29
28
27
26
24
23
22
22
20
19
18
17
15
14
12
10
8
6
5
4
7
10
16
23
29
35
40
46
52
57
63
69
75
81
87
93
100
107
113
119
124
128
133
136
135
132
127
122
117
110
103
96
89
82
76
69
63
57
51
45
39
0
0
0
0
0
0
0
0
0
0
0
0
1
2
4
7
11
15
18
21
25
28
30
32
35
37
38
40
41
41
41
41
42
41
40
40
40
38
38
37
37
34
34
33
32
31
29
28
27
25
24
22
20
18
16
14
11
10
9
11
16
20
26
32
38
43
49
55
60
66
71
77
83
89
95
101
108
114
120
125
130
134
138
138
134
128
123
117
111
103
96
89
82
76
69
63
57
51
45
39
0
0
0
0
0
0
0
0
0
0
0
0
2
4
7
11
15
20
23
27
30
33
35
38
40
43
44
46
46
47
48
48
47
49
47
48
47
47
45
45
44
43
42
41
40
39
37
36
34
33
31
29
27
25
22
20
18
16
15
17
20
24
30
35
41
46
51
57
63
68
74
79
85
90
96
102
109
115
120
125
129
133
135
135
132
127
122
117
110
103
96
89
82
75
69
63
57
51
45
39
0
0
0
0
0
0
0
0
0
0
0
2
4
7
11
15
20
24
27
31
34
37
41
43
46
48
50
51
51
54
54
54
54
55
56
55
55
54
54
52
52
51
50
50
49
47
45
44
42
40
38
36
34
31
28
27
25
23
22
23
26
29
33
39
44
49
55
59
64
70
75
80
86
91
97
103
109
114
119
124
128
130
132
131
129
126
120
114
108
102
94
87
80
74
68
62
56
50
44
39
0
0
0
0
0
0
0
0
0
0
1
3
6
10
15
20
24
27
31
36
39
43
46
48
51
53
56
57
58
60
61
62
61
63
63
62
62
62
62
61
60
60
58
57
57
55
54
51
50
48
46
43
41
39
35
33
31
29
28
29
31
34
38
42
47
52
57
62
68
73
78
82
87
92
98
103
108
113
118
121
125
127
128
127
125
122
117
112
106
99
93
86
79
72
66
61
55
49
43
38
0
0
0
0
0
0
0
0
0
0
2
5
8
14
19
23
27
31
36
40
44
47
50
53
56
59
61
64
64
67
68
69
69
70
70
70
69
69
69
68
69
68
66
65
65
63
61
60
57
55
53
50
48
45
43
40
38
36
35
36
36
39
41
45
50
55
60
65
70
76
80
84
89
94
98
102
107
111
115
119
121
123
124
123
121
118
113
108
102
96
90
83
77
71
64
59
54
48
42
36
0
0
0
0
0
0
0
0
0
1
4
7
12
17
21
27
31
36
40
44
49
52
56
59
62
65
67
69
72
73
75
76
77
77
77
78
78
77
77
77
77
75
75
74
72
71
69
67
66
62
60
58
55
51
49
47
44
42
41
40
41
43
47
50
54
58
63
68
73
78
82
87
91
95
99
102
107
110
113
116
118
119
120
119
116
113
109
104
99
93
87
80
74
68
63
57
51
46
40
35
0
0
0
0
0
0
0
0
0
2
6
10
16
20
26
30
34
39
44
49
52
56
61
64
67
71
74
76
78
82
83
85
85
84
85
84
85
85
85
84
83
83
82
81
80
78
77
75
73
70
68
65
61
59
56
53
50
48
47
46
47
49
51
55
58
63
67
72
76
80
84
89
93
96
100
102
106
108
111
113
114
115
115
114
112
109
104
100
95
89
83
77
71
65
60
54
49
43
38
33
0
0
0
0
0
0
0
0
1
4
7
13
19
23
29
33
37
43
47
52
56
61
65
68
74
77
80
83
86
89
89
91
92
93
93
93
93
92
92
91
90
90
89
89
87
86
85
83
81
77
76
72
68
66
63
60
57
55
53
52
51
53
56
58
62
66
71
75
79
83
87
92
95
98
101
103
105
108
109
111
111
111
111
109
107
104
100
95
90
85
79
74
68
63
57
51
46
41
36
30
0
0
0
0
0
0
0
0
2
5
10
16
20
26
30
36
41
46
50
56
61
65
70
73
79
82
87
91
93
96
98
99
99
101
100
100
100
99
99
99
98
98
97
97
95
94
93
91
88
85
82
79
75
72
69
65
63
61
59
57
57
59
60
63
66
70
74
79
83
88
91
95
99
101
103
105
106
108
108
109
108
108
106
105
102
99
95
90
86
81
76
71
65
60
54
49
44
39
33
28
0
0
0
0
0
0
0
1
3
6
12
17
23
28
33
39
43
49
53
59
64
69
73
79
84
90
93
98
101
103
105
108
108
108
108
108
107
106
105
106
106
105
104
104
103
102
100
98
96
93
89
86
83
79
75
72
68
66
65
63
62
62
64
67
70
74
78
82
86
91
95
99
102
104
106
107
108
108
108
108
106
105
104
101
98
95
91
87
83
77
72
67
62
56
51
46
41
35
31
26
0
0
0
0
0
0
0
1
4
8
13
19
25
30
36
40
46
52
56
62
67
73
78
84
89
95
99
104
109
112
113
115
117
115
115
115
114
113
113
112
112
112
112
112
110
109
108
106
104
101
97
93
90
85
81
79
74
71
69
67
66
66
69
71
73
78
82
86
91
95
100
103
106
108
110
110
110
110
108
107
104
103
101
98
95
91
87
83
79
74
69
64
58
53
48
43
37
32
28
23
0
0
0
0
0
0
0
2
5
10
16
20
26
32
38
43
49
54
59
65
70
77
82
89
95
101
105
112
114
119
120
123
122
123
121
122
121
120
119
120
118
120
119
119
119
117
116
114
111
108
104
100
96
92
87
84
80
76
74
72
71
70
72
74
77
81
86
91
96
100
104
108
111
112
114
114
113
112
110
107
104
102
99
96
92
88
84
80
76
71
66
61
56
50
45
39
34
29
24
19
0
0
0
0
0
0
0
2
6
10
16
22
28
33
39
45
51
56
61
67
73
80
86
93
99
105
111
118
121
126
127
129
129
129
128
127
127
127
126
126
126
126
127
127
127
125
124
122
120
115
112
107
103
97
92
89
85
81
79
76
75
75
76
78
81
84
90
95
100
104
109
112
116
117
118
117
117
113
112
109
105
102
98
94
90
86
82
77
72
67
62
57
52
47
41
36
30
25
21
16
0
0
0
0
0
0
1
3
6
12
17
23
29
35
40
46
52
58
64
69
75
83
89
97
103
111
117
122
127
131
133
134
135
134
135
133
132
132
132
132
132
133
134
134
134
133
132
130
127
123
119
114
110
104
98
94
89
85
83
80
78
78
79
81
85
88
93
98
104
108
113
117
121
122
123
121
120
117
113
110
106
101
97
93
88
83
80
74
70
65
59
54
49
43
38
32
27
23
18
13
0
0
0
0
0
0
1
3
7
13
19
25
30
36
42
47
52
58
65
70
77
84
91
99
106
113
121
127
132
136
139
140
140
140
138
137
137
136
137
138
138
139
141
141
141
141
140
138
135
130
125
120
115
109
103
98
94
89
86
83
82
82
82
83
87
91
97
101
108
113
118
122
125
126
127
125
123
119
116
111
106
101
96
91
86
81
77
72
67
61
56
51
45
40
34
29
24
18
13
9
0
0
0
0
0
0
1
3
7
13
19
25
31
36
42
48
54
60
66
72
78
86
93
101
109
116
124
130
135
140
144
144
144
144
143
142
142
142
142
143
145
147
147
148
149
148
147
145
142
137
132
126
120
115
109
103
98
93
89
86
84
84
84
86
89
93
99
105
110
117
122
126
129
131
130
129
126
122
118
113
107
101
95
90
84
80
75
70
64
59
54
48
42
37
31
26
20
14
9
5
0
0
0
0
0
0
1
3
7
13
19
25
31
36
42
48
54
60
66
72
80
86
94
102
110
117
125
131
137
144
149
148
146
146
145
144
145
146
146
148
150
152
153
155
155
155
153
151
148
143
138
131
126
119
113
106
101
95
91
89
87
86
86
88
91
95
100
106
113
118
123
128
132
135
134
131
128
123
118
113
107
101
95
89
83
78
72
66
62
56
51
45
40
34
28
22
16
10
5
3
0
0
0
0
0
0
1
3
7
13
19
25
31
36
42
48
54
60
66
72
80
86
94
102
110
117
126
131
137
142
147
147
147
146
146
146
147
148
149
152
154
157
158
160
160
160
159
156
153
148
142
136
130
122
115
109
103
97
93
90
88
87
87
89
92
96
102
108
113
120
125
130
134
137
137
133
129
124
119
112
106
100
94
87
82
76
70
64
59
53
48
42
36
30
25
19
12
6
3
1
0
0
0
0
0
0
1
3
7
13
19
25
31
36
42
47
53
59
65
71
78
85
93
101
108
116
123
130
136
140
144
145
146
146
147
147
148
150
152
155
158
160
162
164
165
164
163
162
158
153
146
139
133
125
118
111
104
100
95
91
89
88
88
90
93
97
102
108
113
119
124
130
134
137
136
133
128
123
118
111
105
98
92
85
80
74
68
62
56
51
46
40
34
27
22
15
9
4
1
0
0
0
0
0
0
0
1
3
7
12
18
24
30
35
41
47
52
58
65
70
77
84
91
99
106
115
121
126
132
136
140
142
143
144
145
147
148
150
153
157
160
163
166
167
168
168
167
166
161
155
148
141
134
126
119
113
105
100
96
92
90
88
88
89
92
96
101
107
112
118
122
127
131
134
132
129
125
121
115
109
103
96
90
83
77
72
65
59
54
48
43
37
31
25
19
13
6
2
0
0
0
0
0
0
0
0
1
3
6
11
16
22
28
34
40
45
51
57
62
68
75
83
88
96
103
110
117
122
128
133
136
138
140
142
143
145
148
151
154
158
161
165
168
170
169
168
168
166
162
156
148
142
135
127
119
112
106
100
95
91
89
87
87
88
91
94
99
104
110
115
120
124
126
128
128
126
122
117
112
107
100
93
87
81
74
69
63
57
52
46
40
34
28
23
16
10
5
1
0
0
0
0
0
0
0
0
0
2
5
10
16
21
27
32
38
44
50
55
60
66
72
80
86
93
99
106
112
120
122
129
132
135
136
139
139
143
146
150
153
157
161
166
169
170
169
168
166
164
160
154
148
141
134
126
119
111
105
99
94
91
88
86
85
87
89
92
97
101
106
111
115
119
121
122
122
120
118
113
108
102
96
90
84
78
72
66
61
55
49
43
37
32
25
19
13
7
3
1
0
0
0
0
0
0
0
0
0
1
4
9
14
19
25
31
37
41
47
53
58
65
69
77
82
89
95
102
107
113
118
123
126
130
132
134
137
140
143
147
151
155
159
163
167
168
167
166
164
161
157
152
145
138
132
124
117
110
104
98
93
89
86
84
84
85
87
89
93
97
102
106
110
113
116
117
117
114
112
107
102
98
93
86
81
75
69
63
58
52
47
41
35
29
23
17
12
7
3
1
0
0
0
0
0
0
0
0
0
1
3
7
12
18
24
28
34
40
44
50
55
62
66
72
78
84
90
97
102
108
112
116
120
124
126
129
133
136
140
143
147
152
156
160
162
163
163
162
160
156
153
148
142
134
128
121
114
107
101
96
91
88
85
82
82
82
84
85
89
93
97
101
104
107
110
110
110
108
106
101
98
93
87
82
77
71
66
60
54
49
43
38
33
27
21
16
11
6
2
0
0
0
0
0
0
0
0
0
0
1
2
5
11
16
21
27
31
37
42
47
52
58
63
69
74
79
85
91
96
102
105
111
114
118
120
124
128
131
136
139
144
147
151
155
156
157
158
156
155
152
148
142
137
130
123
117
112
105
99
93
89
84
81
79
79
78
80
82
84
88
92
95
98
101
103
103
103
102
99
96
92
87
82
77
73
67
62
57
52
46
41
36
30
25
20
14
9
4
2
0
0
0
0
0
0
0
0
0
0
0
1
4
8
14
19
24
30
34
39
44
49
53
59
64
70
74
80
86
90
95
99
104
108
112
115
119
122
126
130
133
138
141
145
148
151
151
151
150
148
145
142
137
131
125
119
113
107
101
96
90
85
81
78
76
75
75
76
77
79
83
86
89
92
94
96
96
96
95
93
90
86
82
77
73
69
64
59
54
49
44
39
33
28
23
18
12
7
3
1
0
0
0
0
0
0
0
0
0
0
0
1
3
7
11
17
21
27
31
36
40
46
50
54
60
65
69
74
79
85
89
94
98
101
106
109
112
116
120
125
128
132
136
138
142
144
144
144
143
141
138
135
131
125
119
114
108
102
96
92
86
82
78
75
72
71
71
72
73
75
78
80
83
85
87
89
89
89
88
86
83
80
77
73
69
65
60
56
51
46
41
36
31
26
21
16
10
6
2
1
0
0
0
0
0
0
0
0
0
0
0
0
2
5
8
14
18
23
28
33
37
42
46
51
55
61
65
69
74
79
82
87
92
96
100
102
106
111
114
118
122
125
129
132
134
136
136
137
135
133
130
127
123
118
113
108
103
96
92
86
82
78
73
70
69
67
66
67
68
70
72
74
77
79
80
82
82
82
81
79
78
75
72
68
64
60
56
52
48
43
37
33
29
23
19
13
8
4
1
0
0
0
0
0
0
0
0
0
0
0
0
0
1
3
6
10
15
20
24
29
33
37
42
47
51
55
59
63
68
73
77
81
85
89
93
96
100
103
108
111
115
118
122
124
127
127
128
128
127
125
122
119
115
111
106
101
96
91
87
82
77
72
69
66
64
62
62
62
64
65
67
69
71
72
74
75
76
76
74
73
71
69
66
63
60
56
52
48
44
39
34
30
25
20
16
10
6
3
1
0
0
0
0
0
0
0
0
0
0
0
0
0
0
2
4
7
11
17
21
26
29
33
37
42
46
49
54
58
62
67
71
75
79
82
87
91
95
98
100
105
107
110
114
116
118
119
120
119
118
117
115
111
107
104
101
96
91
86
81
76
72
68
65
61
58
57
57
57
58
59
61
63
65
66
68
69
69
69
68
67
65
63
61
58
55
51
48
44
40
35
31
27
22
17
12
7
4
1
0
0
0
0
0
0
0
0
0
0
0
0
0
0
0
0
2
5
8
13
17
21
26
29
33
36
40
45
48
53
57
60
65
68
72
76
80
83
87
91
94
97
101
104
106
108
109
111
111
110
110
109
107
104
100
97
93
89
84
81
76
71
66
63
59
56
54
52
52
52
52
54
56
57
59
61
62
63
63
63
62
62
60
57
55
52
49
47
43
39
35
31
27
23
19
14
9
5
2
1
0
0
0
0
0
0
0
0
0
0
0
0
0
0
0
0
1
2
5
8
13
17
21
24
29
32
35
40
43
47
51
54
59
61
66
70
74
76
80
84
87
90
93
96
98
100
101
102
102
102
101
101
98
96
93
90
87
82
79
74
70
65
62
58
53
51
48
47
46
46
47
48
50
52
54
55
56
57
57
57
56
56
54
52
50
47
45
42
38
35
31
27
24
19
15
10
6
3
1
0
0
0
0
0
0
0
0
0
0
0
0
0
0
0
0
0
0
1
3
5
8
13
17
20
23
27
31
34
38
41
45
48
52
56
58
62
66
70
73
77
80
83
85
88
90
91
93
94
94
94
93
92
91
89
86
84
80
77
73
68
63
60
55
51
47
45
42
41
40
41
42
43
44
46
48
49
50
51
51
51
50
50
48
47
44
42
40
37
33
31
27
23
19
15
11
7
4
2
0
0
0
0
0
0
0
0
0
0
0
0
0
0
0
0
0
0
0
0
1
3
5
8
12
16
19
22
25
28
31
35
38
42
45
50
52
56
60
64
66
69
72
75
77
80
82
83
85
86
86
86
85
85
83
81
79
76
74
70
67
62
58
54
48
46
41
39
37
35
35
35
35
37
39
40
42
43
44
45
45
45
45
44
43
41
39
37
34
32
29
26
22
19
15
11
7
4
2
1
0
0
0
0
0
0
0
0
0
0
0
0
0
0
0
0
0
0
0
0
0
1
2
5
7
10
14
17
20
23
26
29
32
36
39
43
46
48
52
56
59
62
64
68
70
73
75
75
77
78
79
78
78
77
76
74
71
69
67
63
59
55
52
47
43
40
35
33
30
29
28
29
30
31
33
35
36
38
39
39
39
39
39
38
37
35
34
31
29
27
24
21
18
14
11
7
4
2
1
0
0
0
0
0
0
0
0
0
0
0
0
0
0
0
0
0
0
0
0
0
0
0
1
2
4
6
9
12
15
17
20
22
26
29
33
36
38
42
46
48
51
55
57
60
63
65
67
67
69
69
70
70
70
70
69
66
64
62
60
56
53
49
45
41
37
33
29
26
24
23
22
23
24
26
28
29
31
32
33
34
34
34
34
33
31
30
28
26
24
22
19
16
13
9
6
4
2
1
0
0
0
0
0
0
0
0
0
0
0
0
0
0
0
0
0
0
0
0
0
0
0
0
0
1
2
3
5
7
9
12
14
16
20
22
26
29
32
35
38
41
44
47
50
52
55
57
59
60
61
62
63
62
63
62
61
59
58
55
52
50
47
42
39
35
31
27
23
19
16
16
16
17
19
20
22
23
25
26
28
28
28
28
28
27
25
24
22
21
19
17
14
11
8
5
3
2
1
0
0
0
0
0
0
0
0
0
0
0
0
0
0
0
0
0
0
0
0
0
0
0
0
0
0
0
0
1
2
3
5
6
7
11
14
16
19
23
26
28
31
34
37
39
42
45
47
49
51
52
53
54
54
55
55
55
53
52
50
48
45
43
40
36
33
29
24
20
16
12
10
9
10
11
13
15
16
18
19
20
22
22
22
22
22
21
20
19
17
15
14
11
9
6
4
3
1
0
0
0
0
0
0
0
0
0
0
0
0
0
0
0
0
0
0
0
0
0
0
0
0
0
0
0
0
0
0
0
0
1
2
3
4
5
7
10
11
16
18
21
23
27
29
32
34
37
39
42
43
45
46
47
47
48
47
47
46
45
43
41
38
35
32
30
26
22
18
14
10
6
4
5
5
6
7
9
11
13
13
15
16
16
16
16
16
15
14
13
12
10
8
6
5
3
2
1
0
0
0
0
0
0
0
0
0
0
0
0
0
0
0
0
0
0
0
0
0
0
0
0
0
0
0
0
0
0
0
0
0
0
0
1
1
2
3
4
5
8
11
13
17
19
22
24
27
29
31
33
35
38
38
39
40
40
40
39
38
37
36
33
31
29
26
22
19
15
12
7
4
3
1
1
1
3
3
5
6
7
8
9
10
11
11
11
11
9
8
8
7
5
4
3
2
1
0
0
0
0
0
0
0
0
0
0
0
0
0
0
0
0
0
0
0
0
0
0
0
0
0
0
0
0
0
0
0
0
0
0
0
0
0
0
0
0
1
1
2
3
5
7
9
12
15
17
20
21
24
26
28
30
31
32
32
33
33
32
30
30
28
26
24
22
19
15
12
9
6
3
2
1
0
0
0
1
1
2
3
3
4
4
5
5
5
5
5
5
4
4
3
2
1
1
0
0
0
0
0
0
0
0
0
0
0
0
0
0
0
0
0
0
0
0
0
0
0
0
0
0
0
0
0
0
0
0
0
0
0
0
0
0
0
0
0
0
0
0
0
1
2
3
5
7
8
11
13
15
18
19
21
23
24
24
25
25
25
24
23
22
20
19
16
14
12
8
6
4
2
1
0
0
0
0
0
0
0
0
1
1
1
2
2
2
2
2
2
2
2
1
1
1
0
0
0
0
0
0
0
0
0
0
0
0
0
0
0
0
0
0
0
0
0
0
0
0
0
0
0
0
0
0
0
0
0
0
0
0
0
0
0
0
0
0
0
0
0
0
0
0
0
1
2
3
5
6
7
9
11
13
14
15
17
17
18
18
17
16
16
15
13
11
9
8
5
3
1
1
0
0
0
0
0
0
0
0
0
0
0
0
0
0
0
0
0
0
0
0
0
0
0
0
0
0
0
0
0
0
0
0
0
0
0
0
0
0
0
0
0
0
0
0
0
0
0
0
0
0
0
0
0
0
0
0
0
0
0
0
0
0
0
0
0
0
0
0
0
0
0
0
0
0
0
1
2
2
4
5
6
7
7
8
10
10
10
11
10
9
8
7
6
5
4
2
2
1
0
0
0
0
0
0
0
0
0
0
0
0
0
0
0
0
0
0
0
0
0
0
0
0
0
0
0
0
0
0
0
0
0
0
0
0
0
0
0
0
0
0
0
0
0
