P2
# Created by GIMP version 2.10.22 PNM plug-in
50 50
255
0
0
0
0
53
158
214
92
0
0
0
0
0
0
0
0
0
0
0
0
0
0
0
0
0
0
0
0
0
0
0
0
0
0
0
0
0
0
0
0
0
0
0
0
0
0
0
0
0
0
0
0
0
0
101
225
239
149
64
71
0
0
56
93
0
0
92
153
168
199
189
0
0
0
0
0
0
0
0
0
0
0
0
0
0
0
0
0
0
0
0
0
0
0
0
0
0
0
0
0
0
0
0
0
0
106
130
205
210
108
46
0
101
129
0
0
56
196
248
254
235
0
0
0
0
0
0
71
0
0
0
0
0
0
0
0
0
0
0
0
0
0
0
0
0
0
0
0
0
0
0
0
0
0
0
0
0
128
115
0
0
66
230
213
73
0
0
0
185
234
203
0
0
28
0
61
185
248
112
0
0
0
0
0
0
0
0
0
0
0
0
0
0
0
0
0
0
0
0
0
0
0
0
0
0
0
0
0
0
0
0
66
161
112
0
0
28
34
119
173
161
56
90
99
0
108
228
240
211
22
0
0
0
0
0
0
0
0
0
0
0
0
0
0
0
0
0
0
0
0
0
0
0
105
129
144
56
0
0
13
0
0
0
0
0
0
96
137
148
188
162
0
0
0
0
0
171
214
235
138
0
0
0
0
0
0
0
0
0
0
0
0
0
0
0
0
0
0
0
0
34
0
0
34
148
180
0
0
0
0
0
0
0
0
0
163
93
118
174
219
221
0
0
0
0
0
0
125
242
225
108
0
0
0
0
0
0
0
0
0
0
0
0
0
0
0
0
0
0
0
157
0
0
0
0
0
0
0
0
0
0
0
0
0
0
85
115
46
59
132
227
0
0
0
88
92
0
0
206
255
216
50
0
0
0
0
0
0
0
0
0
0
0
0
0
0
0
0
0
0
175
0
0
0
0
0
0
0
0
0
0
0
0
0
0
0
0
0
0
93
226
28
0
0
0
77
79
0
175
249
243
187
112
0
0
0
0
0
0
0
0
0
0
0
0
0
0
0
0
0
142
0
56
96
0
0
13
0
0
0
0
0
0
0
0
0
0
0
0
101
148
0
0
0
0
46
66
71
114
226
251
253
217
0
0
0
0
0
0
0
0
0
0
0
0
0
0
0
0
0
96
0
0
102
13
167
125
0
0
50
0
0
0
0
59
0
0
0
0
0
0
0
0
0
0
0
69
206
148
194
249
216
102
0
0
0
0
0
0
0
0
0
0
0
0
0
0
0
0
0
0
0
56
53
0
59
0
0
0
0
0
0
38
0
0
0
0
0
0
0
0
0
0
0
127
46
0
187
187
233
238
126
0
0
0
0
0
0
0
190
114
0
0
0
0
0
0
0
0
0
130
0
0
0
0
102
112
110
0
0
0
0
120
0
0
0
0
0
0
0
0
0
34
119
198
157
56
38
121
178
121
0
0
0
0
0
0
0
56
236
124
0
0
0
0
0
0
0
0
0
143
169
13
0
0
135
169
119
0
0
0
112
161
0
0
0
0
0
93
69
93
0
147
119
59
50
22
132
0
0
0
0
0
0
0
0
0
0
109
235
66
0
0
0
0
0
0
0
0
0
155
64
0
0
0
38
159
77
0
0
64
114
105
159
81
0
0
0
42
0
135
109
166
99
0
0
0
46
0
0
0
0
0
0
0
0
0
0
163
230
0
0
0
0
0
0
0
0
0
0
202
28
128
83
0
0
0
0
0
0
69
34
0
0
0
0
0
0
102
0
0
0
0
106
95
0
34
0
0
0
0
0
0
0
0
0
0
0
134
156
0
0
0
0
0
0
0
0
0
0
173
66
159
175
0
0
0
0
0
0
0
0
0
0
0
0
53
99
148
90
0
0
66
118
132
28
106
71
0
0
0
0
0
0
0
0
0
0
0
0
0
0
0
0
0
0
0
0
0
0
200
92
130
203
175
22
0
0
0
0
0
0
0
0
0
0
0
53
0
0
0
0
0
56
154
124
0
0
0
0
0
0
0
0
0
0
0
0
0
0
0
0
0
0
0
0
0
0
0
0
242
219
182
169
211
46
0
0
0
0
0
0
0
0
0
0
0
0
0
0
0
0
0
0
53
93
0
0
0
0
0
0
0
0
0
0
0
0
0
0
0
0
0
0
0
0
0
0
0
0
251
248
223
131
150
50
0
0
0
0
0
0
0
0
0
0
22
0
0
0
0
0
0
0
0
0
0
0
0
0
0
0
0
0
0
0
0
0
0
0
0
0
0
0
0
0
0
0
0
0
238
236
213
144
0
0
0
0
0
0
0
0
0
0
0
0
90
0
0
0
0
0
0
0
0
0
0
0
0
0
0
0
121
170
136
13
0
0
0
0
0
0
0
0
0
0
0
0
0
0
156
202
189
182
180
0
0
0
0
0
0
0
0
0
0
0
0
0
0
0
0
0
0
0
0
0
0
0
0
0
0
0
215
252
243
202
13
0
0
0
0
0
0
0
0
0
0
0
0
0
164
235
213
163
134
0
0
0
0
0
88
42
0
0
0
0
0
0
0
0
0
0
0
0
0
92
143
0
0
0
0
0
227
245
240
250
188
0
0
0
0
0
0
0
0
0
0
0
0
0
192
139
0
0
0
86
108
0
0
0
53
0
0
0
104
90
0
0
0
0
0
0
0
0
0
0
0
0
188
109
0
0
189
247
245
250
241
98
0
0
0
0
0
0
0
0
0
0
0
0
196
148
71
135
117
93
120
0
0
0
0
28
0
0
0
0
0
0
0
0
0
0
0
0
0
0
0
0
131
146
13
0
118
240
248
247
248
159
0
0
0
0
0
0
0
95
145
93
0
0
185
150
96
192
170
88
161
42
0
0
112
187
66
0
0
0
0
0
0
0
0
0
0
0
0
0
0
0
0
0
0
0
0
159
209
236
254
184
0
0
0
0
0
0
0
147
213
198
0
0
154
83
110
81
0
0
28
0
0
83
179
194
0
0
0
0
0
0
0
0
0
0
0
0
0
0
0
0
0
0
0
0
0
0
64
144
213
102
0
0
0
0
0
0
0
71
128
86
0
0
102
115
139
59
0
61
0
0
0
0
13
0
46
192
210
101
42
83
0
0
0
0
0
0
0
0
0
0
0
0
0
69
0
0
71
131
155
59
0
0
0
0
0
0
0
0
0
0
0
0
182
226
242
171
0
0
0
0
0
0
0
0
0
114
185
110
118
124
71
0
0
0
0
0
0
0
0
0
0
0
0
0
0
0
71
98
159
202
127
0
0
0
0
0
0
0
0
0
0
0
196
229
255
230
0
0
0
0
0
0
0
0
66
108
199
138
0
61
46
0
56
0
0
0
0
0
0
0
0
0
0
0
0
0
0
0
96
223
220
53
0
0
0
0
0
0
0
0
0
0
218
246
251
206
0
0
0
0
0
0
0
0
50
176
196
117
0
64
118
0
0
0
0
0
0
0
0
0
0
0
0
0
0
0
0
0
156
248
213
42
0
0
0
0
0
0
0
0
0
0
250
251
240
130
85
88
0
0
0
28
0
0
0
0
53
0
0
0
42
109
0
0
0
0
0
0
0
0
0
0
0
0
0
0
0
148
73
69
0
0
0
0
0
0
0
0
0
0
0
0
241
213
165
61
182
234
117
0
0
95
0
0
0
104
127
0
0
0
50
69
0
0
0
0
0
0
0
0
0
0
0
0
0
0
0
178
120
153
109
0
0
0
0
0
0
0
0
0
0
0
157
79
0
0
124
194
164
131
137
0
0
0
0
0
88
141
0
0
0
0
0
0
0
0
0
0
0
0
0
0
0
0
0
0
56
155
137
202
205
38
0
0
0
0
0
0
0
0
0
0
53
147
139
0
122
202
203
197
159
56
95
13
0
0
180
212
0
0
0
0
0
0
0
0
104
132
0
42
0
0
0
0
0
0
126
149
206
243
231
99
0
0
0
0
0
0
0
0
0
0
173
194
79
61
190
252
227
178
104
101
22
0
0
110
229
221
0
0
0
0
0
0
0
0
135
158
85
172
119
119
42
0
0
0
106
179
230
196
126
138
132
0
0
0
0
0
0
0
0
0
231
234
147
102
228
253
217
105
69
131
59
0
46
192
246
209
0
0
0
0
0
42
46
0
0
0
0
50
124
133
119
0
0
0
104
162
176
98
0
0
0
0
0
0
0
0
0
90
0
0
189
152
158
173
230
222
199
155
214
218
118
121
200
244
251
214
42
0
0
0
0
0
0
0
0
0
66
71
106
138
169
137
129
61
64
122
81
0
0
0
0
61
83
0
0
0
0
170
104
0
90
0
96
161
231
183
114
151
209
180
90
200
248
250
248
246
99
0
0
0
0
0
0
0
0
0
0
83
121
61
152
125
0
0
73
185
171
0
0
0
22
176
126
0
0
0
0
42
0
0
22
0
0
0
128
175
104
66
42
73
191
250
248
241
239
254
203
124
135
144
159
229
191
129
0
0
0
0
42
139
165
159
0
0
73
137
157
121
0
0
0
85
0
0
0
64
115
0
0
0
85
0
34
28
167
219
179
154
124
172
236
251
248
245
244
247
252
237
234
250
247
199
182
161
0
0
0
0
167
218
173
126
73
64
175
215
194
99
0
0
0
0
0
0
0
38
112
0
0
0
56
0
13
166
235
253
242
231
223
236
250
250
246
244
244
246
250
252
239
215
188
50
66
122
56
0
28
0
174
125
0
124
112
81
189
231
170
50
0
0
0
0
0
0
0
0
0
0
0
0
59
13
125
224
220
248
247
249
251
251
248
250
243
244
247
246
210
157
162
175
59
0
0
34
0
79
172
115
22
0
0
106
190
93
104
204
132
119
102
95
212
106
0
0
0
59
0
0
0
0
93
77
184
251
241
233
220
237
244
247
246
243
247
248
248
251
200
188
185
129
0
0
0
0
0
0
96
0
0
0
93
135
204
186
0
42
0
73
61
0
96
131
126
83
0
0
0
0
0
0
122
93
206
252
241
233
227
244
247
249
249
247
250
245
232
239
190
183
133
22
0
0
0
0
0
0
0
34
165
170
205
189
141
99
0
0
38
96
73
71
0
0
38
141
95
0
0
0
0
0
175
109
213
251
249
246
239
247
249
250
248
249
252
229
163
150
120
95
66
0
0
0
0
0
0
0
0
137
167
188
234
205
22
0
0
0
131
99
69
101
59
0
38
0
0
0
0
0
0
0
209
130
216
248
241
250
246
248
250
249
248
252
243
158
34
0
0
0
0
0
0
0
0
0
0
0
0
161
56
22
147
191
0
114
144
0
93
119
0
0
0
0
0
0
0
0
0
0
0
0
206
139
214
245
249
251
250
250
247
244
251
249
158
0
0
0
0
0
0
0
0
0
0
0
0
0
0
0
0
56
104
0
0
73
66
0
56
77
0
0
0
0
0
0
0
0
0
0
0
0
236
225
245
251
249
250
250
246
245
238
248
198
0
0
0
0
0
0
0
0
0
0
0
0
0
86
85
0
59
167
99
53
0
0
0
0
77
0
0
0
0
69
117
0
0
0
0
0
0
0
238
250
248
240
248
252
250
247
248
248
218
108
0
0
0
0
0
0
0
0
0
0
0
0
0
160
159
0
28
127
79
122
42
0
50
0
0
0
0
0
0
96
125
0
0
13
0
0
0
0
