P2
 10 10
        15
        1 2 5 8 4 2 3 8 12 8
        2 3 8 12 8 1 2 5 8 4
        4 6 12 15 11 3 1 0 0 1
        2 3 2 1 2 4 6 12 15 11
        3 1 0 0 1 2 3 2 1 2
        1 2 5 8 4 2 3 8 12 8
        2 3 8 12 8 1 2 5 8 4
        4 6 12 15 11 3 1 0 0 1
        2 3 2 1 2 4 6 12 15 11
        3 1 0 0 1 2 3 2 1 2
