P2
 4 4
        15
        1 15 8 0
        1 1 1 1
        1 1 1 1
        1 1 1 1
